<svg width="45" height="46" viewBox="0 0 45 46" fill="none" xmlns="http://www.w3.org/2000/svg">
<path d="M6.21 44.0771C8.101 44.8849 10.0424 44.9887 12.0998 44.9897C19.2726 44.9932 26.4454 44.9932 33.6182 44.9897C34.5421 44.9887 35.3591 44.9199 36.2255 44.7986C38.5187 44.4773 40.4371 43.4636 41.9807 41.7576C43.1263 40.4914 43.8525 39.0944 44.1595 37.5665C44.3842 36.4518 44.4969 35.1675 44.4976 33.7136C44.501 26.595 44.501 19.4763 44.4976 12.3577C44.4966 11.0638 44.4524 10.0248 44.253 8.89529C43.5377 4.84404 40.396 1.80816 36.3283 1.21208C35.4095 1.0778 34.7072 1.01031 34.2215 1.00962C26.6999 1.00688 19.1788 1.00688 11.6579 1.00962C10.5038 1.01065 9.55727 1.07848 8.50489 1.25011C4.40019 1.92121 1.3376 5.04547 0.712744 9.15222C0.580511 10.0196 0.514051 10.7729 0.513366 11.4122C0.511996 18.9488 0.507542 26.4854 0.500005 34.0219C0.49932 34.875 0.564065 35.7653 0.694242 36.693C1.15158 39.955 3.16179 42.776 6.21 44.0771Z" stroke="#EB8C8D" stroke-width="0.205543"/>
<path d="M24.0635 9.90052C24.1776 9.49663 24.415 9.27156 24.677 8.96427C24.9093 8.69193 24.9042 8.35175 24.6061 8.12771C23.3523 7.18838 21.4171 7.15241 20.1962 8.18012C19.8745 8.45144 19.9639 8.76798 20.2373 9.05265C20.4805 9.30547 20.67 9.59666 20.8056 9.92621C20.8084 9.93242 20.8096 9.93917 20.8092 9.94594C20.8089 9.95272 20.8069 9.95935 20.8036 9.96531C20.8002 9.97126 20.7955 9.9764 20.7898 9.98031C20.7841 9.98423 20.7775 9.98682 20.7707 9.98788C14.6887 10.7864 9.9365 15.2539 8.68885 21.2465C8.55833 21.8734 8.48639 22.5229 9.09891 22.8323C9.28733 22.9268 9.65045 22.9741 10.1883 22.9741C18.4772 22.9727 26.7664 22.9724 35.056 22.9731C35.3821 22.9731 35.6102 22.9481 35.7404 22.8981C36.2933 22.6843 36.542 22.1139 36.4362 21.5343C35.2923 15.295 30.3891 10.7484 24.1026 9.9591C24.0669 9.95499 24.0539 9.93546 24.0635 9.90052Z" stroke="#EB8C8D" stroke-width="0.205543"/>
<path d="M14.0905 27.9697C11.7638 24.6275 7.0147 27.8587 9.13899 31.1967C15.3639 40.9764 29.5772 41.0823 35.7815 31.2193C36.0528 30.787 36.2313 30.4307 36.317 30.1505C36.7003 28.8915 36.0898 27.4332 34.9912 26.7991C33.8134 26.1198 32.3736 26.2678 31.3963 27.2307C31.2551 27.3691 31.0307 27.6764 30.7231 28.1526C30.0777 29.1522 29.273 30.011 28.309 30.7291C28.1329 30.8606 27.9582 30.9942 27.7849 31.1299C25.6225 32.8297 22.8919 33.3713 20.2404 32.6797C18.7975 32.3035 17.5642 31.4433 16.517 30.6623C15.5345 29.9285 14.8182 29.0138 14.0905 27.9697Z" stroke="#EB8C8D" stroke-width="0.205543"/>
<path d="M33.2626 18.1099C31.7015 14.4769 28.6101 11.9497 24.7439 11.0063C24.3112 10.9004 24.192 11.3886 24.6051 11.5921C28.1703 13.3495 31.573 16.5046 31.9995 20.6987C32.0489 21.1807 32.163 21.488 32.6809 21.5106C33.4065 21.5425 34.1002 21.303 33.9676 20.4294C33.8614 19.7285 33.6264 18.9553 33.2626 18.1099Z" stroke="#EB8C8D" stroke-width="0.205543"/>
<path d="M6.21 44.0771C3.16179 42.776 1.15158 39.955 0.694242 36.693C0.564065 35.7653 0.49932 34.875 0.500005 34.0219C0.507542 26.4854 0.511996 18.9488 0.513366 11.4122C0.514051 10.7729 0.580511 10.0196 0.712744 9.15222C1.3376 5.04547 4.40019 1.92121 8.50489 1.25011C9.55727 1.07848 10.5038 1.01065 11.6579 1.00962C19.1788 1.00688 26.6999 1.00688 34.2215 1.00962C34.7072 1.01031 35.4095 1.0778 36.3283 1.21208C40.396 1.80816 43.5377 4.84403 44.253 8.8953C44.4524 10.0248 44.4966 11.0638 44.4976 12.3577C44.501 19.4763 44.501 26.595 44.4976 33.7136C44.4969 35.1675 44.3842 36.4518 44.1595 37.5665C43.8525 39.0944 43.1263 40.4914 41.9807 41.7576C40.4371 43.4636 38.5187 44.4772 36.2255 44.7986C35.3591 44.9199 34.5421 44.9887 33.6182 44.9897C26.4454 44.9932 19.2726 44.9932 12.0998 44.9897C10.0424 44.9887 8.101 44.8849 6.21 44.0771ZM24.0635 9.9004C24.1776 9.49651 24.415 9.27144 24.677 8.96415C24.9093 8.69181 24.9042 8.35163 24.6061 8.12759C23.3523 7.18826 21.4171 7.15229 20.1962 8.18001C19.8745 8.45132 19.9639 8.76786 20.2373 9.05254C20.4805 9.30535 20.67 9.59654 20.8056 9.9261C20.8084 9.9323 20.8096 9.93905 20.8092 9.94583C20.8089 9.9526 20.8069 9.95923 20.8036 9.96519C20.8002 9.97115 20.7955 9.97628 20.7898 9.98019C20.7841 9.98411 20.7775 9.9867 20.7707 9.98776C14.6887 10.7863 9.9365 15.2538 8.68885 21.2464C8.55833 21.8733 8.48639 22.5228 9.09891 22.8322C9.28732 22.9267 9.65045 22.974 10.1883 22.974C18.4772 22.9726 26.7664 22.9723 35.056 22.973C35.3821 22.973 35.6102 22.948 35.7404 22.8979C36.2933 22.6842 36.542 22.1138 36.4362 21.5342C35.2923 15.2949 30.3891 10.7483 24.1025 9.95898C24.0669 9.95487 24.0539 9.93534 24.0635 9.9004ZM14.0905 27.9697C11.7638 24.6276 7.0147 27.8587 9.13899 31.1968C15.3639 40.9765 29.5772 41.0824 35.7815 31.2194C36.0528 30.787 36.2313 30.4308 36.317 30.1505C36.7003 28.8916 36.0898 27.4333 34.9912 26.7992C33.8134 26.1198 32.3736 26.2678 31.3963 27.2308C31.2551 27.3692 31.0307 27.6765 30.7231 28.1527C30.0777 29.1523 29.273 30.0111 28.309 30.7291C28.1329 30.8607 27.9582 30.9943 27.7849 31.1299C25.6225 32.8298 22.8919 33.3714 20.2404 32.6797C18.7975 32.3036 17.5642 31.4434 16.517 30.6623C15.5345 29.9285 14.8182 29.0139 14.0905 27.9697Z" fill="#F03328"/>
<path d="M24.1026 9.9591C30.3891 10.7484 35.2923 15.295 36.4362 21.5343C36.542 22.1139 36.2933 22.6843 35.7404 22.8981C35.6102 22.9481 35.3821 22.9731 35.056 22.9731C26.7664 22.9724 18.4772 22.9727 10.1883 22.9741C9.65045 22.9741 9.28733 22.9268 9.09891 22.8323C8.48639 22.5229 8.55833 21.8734 8.68885 21.2465C9.9365 15.2539 14.6887 10.7864 20.7707 9.98788C20.7775 9.98682 20.7841 9.98423 20.7898 9.98031C20.7955 9.9764 20.8002 9.97126 20.8036 9.96531C20.8069 9.95935 20.8089 9.95272 20.8092 9.94594C20.8096 9.93917 20.8084 9.93242 20.8056 9.92621C20.67 9.59666 20.4805 9.30547 20.2373 9.05265C19.9639 8.76798 19.8745 8.45144 20.1962 8.18012C21.4171 7.15241 23.3523 7.18838 24.6061 8.12771C24.9042 8.35175 24.9093 8.69193 24.677 8.96427C24.415 9.27156 24.1776 9.49663 24.0635 9.90052C24.0539 9.93546 24.0669 9.95499 24.1026 9.9591ZM33.2626 18.1099C31.7015 14.4769 28.6101 11.9498 24.7439 11.0063C24.3112 10.9005 24.192 11.3887 24.6051 11.5921C28.1703 13.3495 31.573 16.5046 31.9995 20.6987C32.0489 21.1807 32.1629 21.488 32.6809 21.5106C33.4065 21.5425 34.1002 21.303 33.9676 20.4295C33.8614 19.7286 33.6264 18.9554 33.2626 18.1099Z" fill="#F8F8F8"/>
<path d="M33.2626 18.1099C33.6264 18.9553 33.8614 19.7285 33.9676 20.4294C34.1002 21.303 33.4065 21.5424 32.6809 21.5106C32.163 21.488 32.0489 21.1807 31.9995 20.6987C31.573 16.5046 28.1703 13.3495 24.6051 11.5921C24.192 11.3886 24.3112 10.9004 24.7439 11.0063C28.6101 11.9497 31.7015 14.4769 33.2626 18.1099Z" fill="#FF9E0C"/>
<path d="M9.13899 31.1969C7.0147 27.8589 11.7638 24.6278 14.0905 27.9699C14.8182 29.0141 15.5345 29.9287 16.517 30.6625C17.5642 31.4436 18.7975 32.3038 20.2404 32.6799C22.8919 33.3716 25.6225 32.83 27.7849 31.1301C27.9582 30.9945 28.1329 30.8609 28.309 30.7293C29.273 30.0113 30.0777 29.1525 30.7231 28.1528C31.0307 27.6767 31.2551 27.3694 31.3963 27.231C32.3736 26.268 33.8134 26.12 34.9912 26.7993C36.0898 27.4334 36.7003 28.8918 36.317 30.1507C36.2313 30.4309 36.0528 30.7872 35.7815 31.2195C29.5772 41.0825 15.3639 40.9767 9.13899 31.1969Z" fill="#F8F8F8"/>
</svg>
